<svg version="1.1" id="Layer_1" xmlns="http://www.w3.org/2000/svg" xmlns:xlink="http://www.w3.org/1999/xlink" x="0px" y="0px"
	 width="100%" viewBox="0 0 66 60" enable-background="new 0 0 66 60" xml:space="preserve">
<path fill="#FBFAFA" opacity="1.000000" stroke="none" 
	d="
M38.000000,61.000000 
	C25.357519,61.000000 13.215036,61.000000 1.072555,61.000000 
	C1.048370,60.857849 1.003020,60.715702 1.002997,60.573547 
	C0.999848,40.779640 1.000000,20.985731 1.000000,1.095912 
	C22.891953,1.095912 44.784466,1.095912 66.838486,1.095912 
	C66.838486,20.998960 66.838486,40.999355 66.838486,61.000000 
	C57.462189,61.000000 47.981094,61.000000 38.000000,61.000000 
M22.951801,35.461166 
	C23.037634,35.620930 23.123468,35.780689 23.068520,36.591259 
	C22.650801,37.089249 22.233084,37.587234 20.955372,38.049156 
	C16.315552,37.683350 11.675733,37.317543 7.035914,36.951736 
	C6.690289,37.432873 6.344663,37.914013 5.999038,38.395149 
	C8.266476,41.000031 10.555472,43.586544 12.795167,46.215069 
	C14.948246,48.741943 16.159252,48.429638 18.390970,45.744831 
	C19.748255,44.111984 18.526155,39.702080 23.377956,41.119713 
	C26.023417,41.598709 30.318558,38.843704 30.290167,44.995716 
	C30.445398,42.512714 33.468098,39.553082 28.382164,38.282158 
	C27.937643,37.797359 27.493124,37.312565 26.796740,36.372749 
	C26.625189,35.913754 26.453638,35.454762 26.660421,34.892826 
	C26.896885,34.732868 27.038509,34.511955 27.529810,34.020897 
	C27.529810,34.020897 27.980530,33.825436 28.779760,33.956989 
	C29.849737,34.029301 30.919716,34.101608 32.201611,34.491131 
	C32.468067,34.347664 32.734528,34.204197 33.012264,33.998371 
	C33.012264,33.998371 33.073315,34.015892 33.729553,34.084023 
	C34.531643,34.084023 35.333733,34.084023 36.218063,34.084023 
	C35.870304,35.383892 35.604023,36.379215 35.019897,38.562592 
	C36.978687,36.829380 38.028381,35.900570 39.844250,34.906094 
	C41.363132,34.321445 42.882015,33.736794 45.229641,33.201485 
	C49.390247,32.622368 53.550854,32.043247 57.711460,31.464130 
	C57.835308,30.787237 57.959152,30.110346 58.082996,29.433453 
	C55.745010,28.585579 53.407024,27.737705 50.984486,26.277216 
	C50.320107,25.610973 49.655724,24.944731 48.395771,23.979366 
	C47.957691,23.927698 47.519608,23.876030 46.606365,23.292669 
	C43.695301,21.611242 40.527046,20.251442 37.931271,18.175730 
	C33.651741,14.753596 30.321800,14.629614 25.880781,18.000118 
	C23.066483,20.136026 19.901606,21.810007 16.118166,23.759880 
	C14.291010,24.594395 12.463855,25.428911 10.119145,26.448568 
	C10.043421,27.813309 9.967695,29.178049 9.784922,31.335659 
	C10.491980,31.575954 11.199038,31.816250 12.546302,32.379890 
	C13.720558,32.562382 14.894814,32.744869 16.629074,33.095745 
	C17.017107,33.094673 17.405142,33.093605 18.425203,33.436390 
	C19.581221,33.761063 20.737238,34.085732 22.028982,34.745476 
	C22.196936,34.953968 22.412891,35.036034 22.951801,35.461166 
M43.649921,41.260353 
	C44.884716,43.802124 46.119511,46.343891 48.069519,50.357903 
	C51.529701,46.459618 54.335720,43.298321 57.704773,39.668457 
	C57.603855,39.211529 57.481724,38.351055 57.405037,38.355087 
	C50.871277,38.698547 44.341030,39.108887 37.344429,39.543442 
	C38.480465,42.356628 39.299862,44.385719 40.178936,46.562588 
	C41.346046,44.256058 42.232254,42.504665 43.649921,41.260353 
M35.950207,46.704376 
	C35.545906,45.060474 37.145885,41.988262 32.097668,43.107533 
	C33.509109,44.740738 34.607059,46.011196 35.950207,46.704376 
z"/>
<path fill="#9F1114" opacity="1.000000" stroke="none" 
	d="
M16.893957,23.691156 
	C19.901606,21.810007 23.066483,20.136026 25.880781,18.000118 
	C30.321800,14.629614 33.651741,14.753596 37.931271,18.175730 
	C40.527046,20.251442 43.695301,21.611242 46.644173,23.843472 
	C45.454830,24.928539 44.227673,25.462807 42.572510,25.997967 
	C40.432060,25.991325 38.719620,25.983797 37.004395,25.581280 
	C37.225563,21.810696 35.590946,19.473349 32.336250,19.357229 
	C28.865648,19.233410 26.578703,21.378212 25.763714,25.256924 
	C24.352556,25.686504 23.173717,25.844372 21.746307,25.724167 
	C19.998772,25.294737 18.499805,25.143377 16.975019,24.666729 
	C16.930786,24.124680 16.912373,23.907919 16.893957,23.691156 
z"/>
<path fill="#9D1C1E" opacity="1.000000" stroke="none" 
	d="
M22.815903,40.734276 
	C18.526155,39.702080 19.748255,44.111984 18.390970,45.744831 
	C16.159252,48.429638 14.948246,48.741943 12.795167,46.215069 
	C10.555472,43.586544 8.266476,41.000031 5.999038,38.395149 
	C6.344663,37.914013 6.690289,37.432873 7.035914,36.951736 
	C11.675733,37.317543 16.315552,37.683350 21.573915,38.303730 
	C22.400274,39.283627 22.608088,40.008953 22.815903,40.734276 
z"/>
<path fill="#950008" opacity="1.000000" stroke="none" 
	d="
M21.994879,26.002239 
	C23.173717,25.844372 24.352556,25.686504 26.138763,25.426231 
	C30.166479,25.541307 33.586830,25.758789 37.007179,25.976269 
	C38.719620,25.983797 40.432060,25.991325 42.570229,26.318508 
	C42.992134,27.065220 42.988316,27.492281 43.004681,27.989273 
	C43.024864,28.059202 43.046432,28.203161 42.707458,28.152739 
	C41.798546,28.192461 41.228603,28.282604 40.658665,28.372749 
	C40.683403,28.557667 40.708141,28.742586 40.732880,28.927505 
	C41.483513,28.872538 42.234142,28.817568 43.249947,28.844866 
	C43.676949,29.349855 43.838783,29.772581 43.663757,30.156445 
	C42.559162,30.440094 41.791424,30.762606 40.691719,31.051765 
	C39.308708,30.709223 38.257671,30.400032 36.972160,30.125362 
	C36.427521,30.270674 36.190933,30.469128 35.664333,30.792694 
	C34.576027,30.906633 33.851311,30.983122 32.782684,31.056713 
	C30.952690,31.977690 29.466610,32.901562 27.980530,33.825432 
	C27.980530,33.825436 27.529810,34.020897 27.037365,34.057571 
	C26.390162,33.992130 26.235401,33.890018 26.091026,33.602516 
	C26.101416,33.417126 26.050638,33.049255 26.025625,32.685326 
	C25.941010,31.840048 25.881407,31.358698 25.721457,30.613752 
	C25.079691,30.305138 24.538273,30.260118 23.749895,30.146172 
	C23.341238,30.021816 23.179541,29.966393 22.994303,29.624537 
	C22.665646,28.877930 22.360527,28.417753 22.043442,27.630602 
	C22.020996,26.867435 22.010519,26.431244 22.000122,25.997509 
	C22.000202,25.999964 21.994879,26.002239 21.994879,26.002239 
M38.364201,28.551060 
	C34.856850,28.343245 31.349503,28.135429 27.842154,27.927612 
	C27.841183,28.258410 27.840210,28.589205 27.839239,28.920002 
	C31.107725,28.920002 34.376209,28.920002 38.364201,28.551060 
z"/>
<path fill="#9E181A" opacity="1.000000" stroke="none" 
	d="
M57.141747,40.137024 
	C54.335720,43.298321 51.529701,46.459618 48.069519,50.357903 
	C46.119511,46.343891 44.884716,43.802124 43.706673,40.774330 
	C48.222866,40.237877 52.682308,40.187450 57.141747,40.137024 
z"/>
<path fill="#C59A17" opacity="1.000000" stroke="none" 
	d="
M44.000614,30.195305 
	C43.838783,29.772581 43.676949,29.349855 43.264336,28.705166 
	C43.013557,28.483202 43.046432,28.203161 43.046432,28.203161 
	C43.046432,28.203161 43.024864,28.059202 43.384834,27.997349 
	C45.461910,27.674038 47.179016,27.412582 49.060883,27.343105 
	C49.840111,27.319998 50.454575,27.104914 51.069038,26.889832 
	C53.407024,27.737705 55.745010,28.585579 58.082996,29.433453 
	C57.959152,30.110346 57.835308,30.787237 57.711460,31.464130 
	C53.550854,32.043247 49.390247,32.622368 44.697212,33.123528 
	C44.164780,33.045570 43.996227,32.850235 43.998909,32.533340 
	C43.984177,31.793310 43.966763,31.370171 43.962509,30.759121 
	C43.975666,30.571213 44.000614,30.195305 44.000614,30.195305 
z"/>
<path fill="#994C4B" opacity="1.000000" stroke="none" 
	d="
M57.423260,39.902740 
	C52.682308,40.187450 48.222866,40.237877 43.440945,40.520790 
	C42.232254,42.504665 41.346046,44.256058 40.178936,46.562588 
	C39.299862,44.385719 38.480465,42.356628 37.344429,39.543442 
	C44.341030,39.108887 50.871277,38.698547 57.405037,38.355087 
	C57.481724,38.351055 57.603855,39.211529 57.423260,39.902740 
z"/>
<path fill="#A8A7A7" opacity="1.000000" stroke="none" 
	d="
M23.096930,40.926994 
	C22.608088,40.008953 22.400274,39.283627 22.003912,38.321762 
	C22.233084,37.587234 22.650801,37.089249 23.388649,36.263695 
	C24.089865,35.680275 24.470947,35.424423 25.209562,35.125511 
	C25.805424,35.053555 26.043755,35.024662 26.282085,34.995766 
	C26.453638,35.454762 26.625189,35.913754 26.938326,36.966072 
	C27.575874,38.023258 28.071836,38.487118 28.567797,38.950977 
	C33.468098,39.553082 30.445398,42.512714 30.290167,44.995716 
	C30.318558,38.843704 26.023417,41.598709 23.096930,40.926994 
z"/>
<path fill="#9B0F0F" opacity="1.000000" stroke="none" 
	d="
M48.896126,27.151129 
	C47.179016,27.412582 45.461910,27.674038 43.364647,27.927418 
	C42.988316,27.492281 42.992134,27.065220 42.998238,26.317617 
	C44.227673,25.462807 45.454830,24.928539 46.881756,24.109318 
	C47.519608,23.876030 47.957691,23.927698 48.692947,24.488007 
	C48.958794,25.714809 48.927460,26.432968 48.896126,27.151129 
z"/>
<path fill="#9A090B" opacity="1.000000" stroke="none" 
	d="
M16.506062,23.725517 
	C16.912373,23.907919 16.930786,24.124680 16.965462,25.045948 
	C16.948078,26.254826 16.914434,26.759192 16.562986,27.361336 
	C15.145782,27.700642 14.046383,27.942171 12.688826,28.034868 
	C11.832678,27.345163 11.234689,26.804295 10.636700,26.263426 
	C12.463855,25.428911 14.291010,24.594395 16.506062,23.725517 
z"/>
<path fill="#A66B2E" opacity="1.000000" stroke="none" 
	d="
M43.663757,30.156445 
	C44.000614,30.195305 43.975666,30.571213 43.704193,30.867990 
	C43.177788,31.636534 42.922855,32.108299 42.667923,32.580067 
	C43.110691,32.670124 43.553459,32.760178 43.996227,32.850235 
	C43.996227,32.850235 44.164780,33.045570 44.282841,33.098854 
	C42.882015,33.736794 41.363132,34.321445 39.344048,34.680260 
	C38.805889,34.269234 38.767933,34.084045 38.982750,33.698418 
	C39.831581,32.693691 40.427635,31.889404 41.023689,31.085115 
	C41.791424,30.762606 42.559162,30.440094 43.663757,30.156445 
z"/>
<path fill="#E4E2E2" opacity="1.000000" stroke="none" 
	d="
M38.729973,33.898861 
	C38.767933,34.084045 38.805889,34.269234 38.960964,34.713089 
	C38.028381,35.900570 36.978687,36.829380 35.019897,38.562592 
	C35.604023,36.379215 35.870304,35.383892 36.218063,34.084023 
	C35.333733,34.084023 34.531643,34.084023 33.508263,33.793411 
	C33.579353,33.040989 33.871738,32.579185 34.477375,32.170109 
	C36.103745,32.781513 37.416859,33.340187 38.729973,33.898861 
z"/>
<path fill="#E4E2E2" opacity="1.000000" stroke="none" 
	d="
M35.827606,46.993011 
	C34.607059,46.011196 33.509109,44.740738 32.097668,43.107533 
	C37.145885,41.988262 35.545906,45.060474 35.827606,46.993011 
z"/>
<path fill="#99160A" opacity="1.000000" stroke="none" 
	d="
M34.164120,32.117378 
	C33.871738,32.579185 33.579353,33.040989 33.180141,33.759346 
	C33.073315,34.015892 33.012264,33.998371 32.750282,34.025330 
	C32.322094,34.092831 32.155895,34.133373 31.989693,34.173920 
	C30.919716,34.101608 29.849737,34.029301 28.380144,33.891212 
	C29.466610,32.901562 30.952690,31.977690 32.852688,31.315712 
	C33.565773,31.757530 33.864948,31.937454 34.164120,32.117378 
z"/>
<path fill="#C49219" opacity="1.000000" stroke="none" 
	d="
M10.377922,26.355997 
	C11.234689,26.804295 11.832678,27.345163 12.662683,28.336647 
	C12.534721,29.255606 12.174745,29.723951 11.573887,30.276615 
	C10.852661,30.421555 10.372315,30.482172 9.891971,30.542789 
	C9.967695,29.178049 10.043421,27.813309 10.377922,26.355997 
z"/>
<path fill="#893A4E" opacity="1.000000" stroke="none" 
	d="
M26.050638,33.049255 
	C26.050638,33.049255 26.101416,33.417126 25.663334,33.530014 
	C24.114586,33.898739 23.003920,34.154572 21.893255,34.410404 
	C20.737238,34.085732 19.581221,33.761063 18.531307,33.173248 
	C19.779837,32.965382 20.922262,33.020653 22.460072,33.064667 
	C23.920513,33.052029 24.985577,33.050644 26.050638,33.049255 
z"/>
<path fill="#9C4C3E" opacity="1.000000" stroke="none" 
	d="
M16.069069,32.927361 
	C14.894814,32.744869 13.720558,32.562382 12.564215,32.130539 
	C13.420604,31.619692 14.259080,31.358198 15.418619,31.060246 
	C16.174561,31.009018 16.609440,30.994249 17.240841,31.091564 
	C17.689062,31.381523 17.881386,31.609489 17.710321,31.904305 
	C16.960562,32.256500 16.514816,32.591930 16.069069,32.927361 
z"/>
<path fill="#921300" opacity="1.000000" stroke="none" 
	d="
M16.349072,33.011551 
	C16.514816,32.591930 16.960562,32.256500 18.091061,31.975391 
	C19.794613,32.121418 20.813410,32.213123 21.876274,32.501842 
	C21.920340,32.698853 22.064690,33.075924 22.064690,33.075924 
	C20.922262,33.020653 19.779837,32.965382 18.215292,33.001324 
	C17.405142,33.093605 17.017107,33.094673 16.349072,33.011551 
z"/>
<path fill="#9F1114" opacity="1.000000" stroke="none" 
	d="
M49.060883,27.343105 
	C48.927460,26.432968 48.958794,25.714809 48.990734,24.637569 
	C49.655724,24.944731 50.320107,25.610973 51.026764,26.583523 
	C50.454575,27.104914 49.840111,27.319998 49.060883,27.343105 
z"/>
<path fill="#8B0A0D" opacity="1.000000" stroke="none" 
	d="
M15.097555,31.096704 
	C14.259080,31.358198 13.420604,31.619692 12.244112,31.968864 
	C11.199038,31.816250 10.491980,31.575954 9.838446,30.939224 
	C10.372315,30.482172 10.852661,30.421555 11.834208,30.509926 
	C13.256125,30.804844 14.176841,30.950775 15.097555,31.096704 
z"/>
<path fill="#C7CBCA" opacity="1.000000" stroke="none" 
	d="
M21.961119,34.577942 
	C23.003920,34.154572 24.114586,33.898739 25.652945,33.715405 
	C26.235401,33.890018 26.390162,33.992130 26.815107,34.162170 
	C27.038509,34.511955 26.896885,34.732868 26.471252,34.944298 
	C26.043755,35.024662 25.805424,35.053555 24.850067,35.093662 
	C23.647642,35.067139 23.162243,35.029404 22.676846,34.991669 
	C22.412891,35.036034 22.196936,34.953968 21.961119,34.577942 
z"/>
<path fill="#8F8E8E" opacity="1.000000" stroke="none" 
	d="
M22.814323,35.226418 
	C23.162243,35.029404 23.647642,35.067139 24.492535,35.136723 
	C24.470947,35.424423 24.089865,35.680275 23.459042,35.938290 
	C23.123468,35.780689 23.037634,35.620930 22.814323,35.226418 
z"/>
<path fill="#9A9B9B" opacity="1.000000" stroke="none" 
	d="
M28.474979,38.616570 
	C28.071836,38.487118 27.575874,38.023258 27.064259,37.193581 
	C27.493124,37.312565 27.937643,37.797359 28.474979,38.616570 
z"/>
<path fill="#E4E2E2" opacity="1.000000" stroke="none" 
	d="
M32.095650,34.332527 
	C32.155895,34.133373 32.322094,34.092831 32.744640,34.056507 
	C32.734528,34.204197 32.468067,34.347664 32.095650,34.332527 
z"/>
<path fill="#9B0F0F" opacity="1.000000" stroke="none" 
	d="
M37.004395,25.581280 
	C33.586830,25.758789 30.166479,25.541307 26.371082,25.154520 
	C26.578703,21.378212 28.865648,19.233410 32.336250,19.357229 
	C35.590946,19.473349 37.225563,21.810696 37.004395,25.581280 
z"/>
<path fill="#980000" opacity="1.000000" stroke="none" 
	d="
M16.880791,27.263559 
	C16.914434,26.759192 16.948078,26.254826 16.991280,25.371239 
	C18.499805,25.143377 19.998772,25.294737 21.746307,25.724167 
	C21.994879,26.002239 22.000202,25.999964 21.645542,25.994715 
	C20.519026,26.632549 19.747169,27.275633 18.755320,28.091227 
	C18.030720,28.475945 17.526112,28.688152 17.004627,28.626324 
	C16.952097,27.989376 16.916443,27.626467 16.880791,27.263559 
z"/>
<path fill="#C59614" opacity="1.000000" stroke="none" 
	d="
M17.021503,28.900360 
	C17.526112,28.688152 18.030720,28.475945 19.016331,28.247387 
	C20.046194,28.470692 20.595049,28.710346 21.270290,29.210087 
	C21.937063,29.617107 22.477453,29.764038 23.017843,29.910969 
	C23.179541,29.966393 23.341238,30.021816 23.625999,30.378429 
	C23.487297,31.137974 23.225531,31.596331 22.676487,32.097370 
	C22.203543,32.194981 22.017874,32.249905 21.832207,32.304832 
	C20.813410,32.213123 19.794613,32.121418 18.395077,31.958626 
	C17.881386,31.609489 17.689062,31.381523 17.215992,30.745798 
	C17.003580,29.825422 17.012541,29.362890 17.021503,28.900360 
z"/>
<path fill="#C6A11C" opacity="1.000000" stroke="none" 
	d="
M34.477375,32.170109 
	C33.864948,31.937454 33.565773,31.757530 33.196598,31.318609 
	C33.851311,30.983122 34.576027,30.906633 35.912727,30.815660 
	C36.752018,30.564400 36.979324,30.327620 37.206635,30.090839 
	C38.257671,30.400032 39.308708,30.709223 40.691719,31.051765 
	C40.427635,31.889404 39.831581,32.693691 38.982750,33.698418 
	C37.416859,33.340187 36.103745,32.781513 34.477375,32.170109 
z"/>
<path fill="#C9A29E" opacity="1.000000" stroke="none" 
	d="
M38.004448,28.735531 
	C34.376209,28.920002 31.107725,28.920002 27.839239,28.920002 
	C27.840210,28.589205 27.841183,28.258410 27.842154,27.927612 
	C31.349503,28.135429 34.856850,28.343245 38.004448,28.735531 
z"/>
<path fill="#9B0F0F" opacity="1.000000" stroke="none" 
	d="
M21.143906,28.949999 
	C20.595049,28.710346 20.046194,28.470692 19.236324,28.074877 
	C19.747169,27.275633 20.519026,26.632549 21.645462,25.992260 
	C22.010519,26.431244 22.020996,26.867435 21.938816,27.837769 
	C21.673019,28.638674 21.438936,28.831369 21.143906,28.949999 
z"/>
<path fill="#A54E0C" opacity="1.000000" stroke="none" 
	d="
M21.876274,32.501842 
	C22.017874,32.249905 22.203543,32.194981 22.997223,32.106770 
	C24.344091,31.674774 25.082949,31.276060 25.821804,30.877346 
	C25.881407,31.358698 25.941010,31.840048 26.025625,32.685326 
	C24.985577,33.050644 23.920513,33.052029 22.460072,33.064667 
	C22.064690,33.075924 21.920340,32.698853 21.876274,32.501842 
z"/>
<path fill="#D2B222" opacity="1.000000" stroke="none" 
	d="
M25.721457,30.613752 
	C25.082949,31.276060 24.344091,31.674774 23.284500,32.064087 
	C23.225531,31.596331 23.487297,31.137974 23.872959,30.447357 
	C24.538273,30.260118 25.079691,30.305138 25.721457,30.613752 
z"/>
<path fill="#B3716E" opacity="1.000000" stroke="none" 
	d="
M42.707458,28.152739 
	C43.046432,28.203161 43.013557,28.483202 42.999168,28.622902 
	C42.234142,28.817568 41.483513,28.872538 40.732880,28.927505 
	C40.708141,28.742586 40.683403,28.557667 40.658665,28.372749 
	C41.228603,28.282604 41.798546,28.192461 42.707458,28.152739 
z"/>
<path fill="#99160A" opacity="1.000000" stroke="none" 
	d="
M21.270290,29.210087 
	C21.438936,28.831369 21.673019,28.638674 21.950783,28.164745 
	C22.360527,28.417753 22.665646,28.877930 22.994303,29.624538 
	C22.477453,29.764038 21.937063,29.617107 21.270290,29.210087 
z"/>
<path fill="#99160A" opacity="1.000000" stroke="none" 
	d="
M36.972160,30.125362 
	C36.979324,30.327620 36.752018,30.564400 36.276314,30.778212 
	C36.190933,30.469128 36.427521,30.270674 36.972160,30.125362 
z"/>
<path fill="#D9BD1B" opacity="1.000000" stroke="none" 
	d="
M43.998909,32.533340 
	C43.553459,32.760178 43.110691,32.670124 42.667923,32.580067 
	C42.922855,32.108299 43.177788,31.636534 43.691032,31.055901 
	C43.966763,31.370171 43.984177,31.793310 43.998909,32.533340 
z"/>
<path fill="#B57814" opacity="1.000000" stroke="none" 
	d="
M17.004627,28.626322 
	C17.012541,29.362890 17.003580,29.825422 17.019468,30.633717 
	C16.609440,30.994249 16.174561,31.009018 15.418619,31.060246 
	C14.176841,30.950775 13.256125,30.804844 12.075089,30.425604 
	C12.174745,29.723951 12.534721,29.255606 12.920841,28.485481 
	C14.046383,27.942171 15.145782,27.700642 16.562984,27.361336 
	C16.916443,27.626467 16.952097,27.989376 17.004627,28.626322 
z"/>
</svg>